<svg width="16" height="16" viewBox="0 0 16 16" fill="none" xmlns="http://www.w3.org/2000/svg">
  <path d="M8 0C3.582 0 0 3.582 0 8c0 3.535 2.292 6.517 5.472 7.594.4.074.548-.173.548-.385 0-.188-.007-.686-.011-1.349-2.226.484-2.696-1.076-2.696-1.076-.363-.922-.889-1.167-.889-1.167-.726-.496.055-.486.055-.486.804.056 1.226.826 1.226.826.716 1.226 1.876.87 2.332.664.074-.519.28-.87.508-1.07-1.774-.202-3.636-.887-3.636-3.951 0-.874.313-1.589.827-2.148-.083-.202-.358-1.016.079-2.115 0 0 .674-.216 2.207.825.641-.179 1.328-.269 2.010-.272.68.003 1.365.095 2.015.274 1.534-1.045 2.206-.828 2.206-.828.438 1.099.164 1.912.08 2.114.516.558.825 1.274.825 2.148 0 3.071-1.868 3.752-3.644 3.947.29.25.547.741.547 1.496 0 1.082-.01 1.954-.01 2.222 0 .217.148.463.553.385C13.708 14.518 16 11.535 16 8c0-4.418-3.582-8-8-8z" fill="white"/>
</svg>
